
<svg width="59.584093px" height="59.5833333px" viewBox="0 0 59.584093 59.5833333" version="1.1" xmlns="http://www.w3.org/2000/svg" xmlns:xlink="http://www.w3.org/1999/xlink">
    <g id="Page-1" stroke="none" stroke-width="1" fill="none" fill-rule="evenodd">
        <g id="Icon-Resource/Storage/Res_Amazon-Simple-Storage-Service_Bucket_48" fill="#3F8624">
            <path d="M54.73,27.4963542 C54.445625,26.3304167 48.5509375,23.6803125 39.8951042,23.6803125 C31.2392708,23.6803125 25.3459375,26.3304167 25.0615625,27.4963542 L25.0723958,27.5748958 C25.536875,28.74625 31.354375,30.8127083 39.8951042,30.8127083 C48.3491667,30.8127083 54.1273958,28.7882292 54.6961458,27.6114583 L54.7042708,27.5410417 L54.7232292,27.54375 L54.73,27.4963542 Z M54.2167708,31.1661458 C50.3208333,32.9644792 43.8113542,33.5210417 39.8951042,33.5210417 C35.969375,33.5210417 29.4463542,32.9617708 25.5544792,31.1566667 L26.9492708,41.5133333 C27.9933333,41.8965625 28.9723958,42.5154167 29.8322917,43.3658333 C30.3279167,43.8560417 30.7626042,44.4153125 31.1309375,45.0395833 C31.9596875,44.67125 32.8954167,44.5994792 33.7986458,44.8648958 C35.295,45.3090625 36.3458333,46.5440625 36.716875,48.2503125 C37.3235417,48.449375 37.9247917,48.7310417 38.4583333,49.0695833 C40.3108333,50.2409375 41.2492708,51.7752083 41.2492708,53.6304167 C41.2492708,54.8830208 40.9635417,55.9582292 40.4259375,56.8628125 C42.9203125,56.8276042 45.38625,56.5648958 47.4161458,56.0963542 C48.2503125,55.9040625 48.985625,55.6833333 49.6044792,55.4382292 C50.5591667,55.0604167 50.9586458,54.7259375 51.0642708,54.5905208 C51.065625,54.5647917 51.0696875,54.5390625 51.0723958,54.5133333 L52.5213542,43.7463542 C48.5969792,42.4991667 43.6271875,40.2539583 40.95,38.9959375 C40.6534375,39.1665625 40.3135417,39.2708333 39.9479167,39.2708333 C38.8280208,39.2708333 37.9166667,38.3594792 37.9166667,37.2395833 C37.9166667,36.1196875 38.8280208,35.2083333 39.9479167,35.2083333 C40.7658333,35.2083333 41.47,35.6985417 41.7909375,36.3986458 C43.915625,37.4007292 48.9409375,39.7095833 52.8896875,41.0177083 L54.2167708,31.1661458 Z M38.5409375,53.6304167 C38.5409375,52.9858333 38.358125,52.21125 37.009375,51.3567708 C36.4785417,51.0209375 35.8271875,50.7636458 35.2652083,50.6688542 C34.58,50.5523958 34.1033333,49.9416667 34.1385417,49.2632292 C34.0478125,48.31125 33.6375,47.6409375 33.0294792,47.4621875 C32.5392708,47.3186458 32.0328125,47.5041667 31.7023958,47.9469792 C31.4017708,48.3451042 30.9034375,48.5414583 30.4172917,48.4723958 C29.9257292,48.3992708 29.5127083,48.0607292 29.3447917,47.5908333 C29.0130208,46.6659375 28.5363542,45.8913542 27.9296875,45.2928125 C27.3839583,44.7538542 26.1367708,43.7585417 24.3695833,43.7585417 C23.7480208,43.7585417 23.0628125,43.8817708 22.3207292,44.1905208 C20.7255208,44.8554167 19.426875,46.8514583 19.426875,48.6403125 C19.426875,48.8461458 19.4377083,49.0479167 19.4634375,49.245625 C19.54875,49.9240625 19.1127083,50.5605208 18.4491667,50.7270833 C17.3604167,51.000625 16.063125,51.7440625 16.063125,53.7346875 C16.063125,55.355625 16.9582292,56.2439583 17.7097917,56.7057292 C17.89125,56.8167708 18.1025,56.875 18.3232292,56.875 L35.3735417,56.8926042 L35.3803125,56.8926042 C35.9097917,56.8898958 38.5409375,56.7111458 38.5409375,53.6304167 L38.5409375,53.6304167 Z M16.72125,48.4602083 C16.7997917,45.638125 18.7335417,42.7523958 21.279375,41.6907292 C22.2327083,41.2939583 23.2022917,41.1057292 24.1583333,41.0772917 L22.4019792,28.0434375 L22.4033333,28.0434375 C22.4019792,28.0420833 22.4019792,28.0407292 22.4019792,28.0380208 L22.3586458,27.7048958 C22.3505208,27.6466667 22.3464583,27.5884375 22.3464583,27.5288542 C22.3464583,25.666875 24.2842708,24.1380208 27.1835417,23.0208333 L27.0833333,23.0208333 L27.0833333,4.0625 C27.0833333,3.31635417 26.4766667,2.70833333 25.7291667,2.70833333 L4.0625,2.70833333 C3.315,2.70833333 2.70833333,3.31635417 2.70833333,4.0625 L2.70833333,51.4583333 C2.70833333,52.2058333 3.315,52.8125 4.0625,52.8125 L13.4184375,52.8125 C13.6919792,50.8123958 14.86875,49.2645833 16.72125,48.4602083 L16.72125,48.4602083 Z M18.3205208,59.5833333 C17.59875,59.5819792 16.8986458,59.385625 16.2933333,59.0132292 C15.4388542,58.4891667 14.1429167,57.4017708 13.6080208,55.5208333 L8.125,55.5208333 L8.125,59.5833333 L5.41666667,59.5833333 L5.41666667,55.5208333 L4.0625,55.5208333 C1.82270833,55.5208333 0,53.6994792 0,51.4583333 L0,4.0625 C0,1.82270833 1.82270833,0 4.0625,0 L25.7291667,0 C27.9689583,0 29.7916667,1.82270833 29.7916667,4.0625 L29.7916667,22.1934375 C32.816875,21.4053125 36.4094792,20.9719792 39.8951042,20.9719792 C48.3342708,20.9719792 57.4451042,23.4798958 57.4451042,27.5288542 C57.4451042,27.5884375 57.4410417,27.6466667 57.4329167,27.7048958 L57.3895833,28.0380208 C57.3828125,28.0948958 57.3719792,28.1504167 57.3570833,28.2059375 C57.354375,28.218125 57.3476042,28.2276042 57.3448958,28.2384375 L55.9433333,38.6330208 C58.24,39.9722917 59.3382292,41.0502083 59.548125,42.1646875 C59.661875,42.7727083 59.5034375,43.3671875 59.1066667,43.8397917 C58.64625,44.3895833 57.9529167,44.6617708 56.94,44.6617708 C56.4335417,44.6617708 55.8363542,44.5859375 55.1592708,44.4505208 L53.7658333,54.8017708 C53.7103125,56.086875 52.6459375,57.1485417 50.5997917,57.9569792 C49.855,58.2521875 48.9883333,58.5135417 48.0241667,58.7342708 C45.6570833,59.2827083 42.77,59.5833333 39.8951042,59.5833333 L35.3857292,59.5833333 L18.3205208,59.5833333 Z M8.125,23.0208333 L23.0208333,23.0208333 L23.0208333,20.3125 L8.125,20.3125 L8.125,23.0208333 Z M8.125,29.7916667 L18.9583333,29.7916667 L18.9583333,27.0833333 L8.125,27.0833333 L8.125,29.7916667 Z M8.125,16.25 L23.0208333,16.25 L23.0208333,13.5416667 L8.125,13.5416667 L8.125,16.25 Z" id="Fill-4"></path>
        </g>
    </g>
</svg>