
<svg width="58.6706667px" height="58.6706667px" viewBox="0 0 58.6706667 58.6706667" version="1.1" xmlns="http://www.w3.org/2000/svg" xmlns:xlink="http://www.w3.org/1999/xlink">
    <g id="Page-1" stroke="none" stroke-width="1" fill="none" fill-rule="evenodd">
        <g id="Icon-Architecture/48/Arch_Amazon-RDS_48" transform="translate(-0.000000, 0.000000)" fill="#4D27AA">
            <path d="M29.336,56.004 C14.6306667,56.004 2.66666667,44.04 2.66666667,29.3346667 C2.66666667,14.6306667 14.6306667,2.66666667 29.336,2.66666667 C44.04,2.66666667 56.004,14.6306667 56.004,29.3346667 C56.004,44.04 44.04,56.004 29.336,56.004 L29.336,56.004 Z M29.336,0 C13.16,0 3.55271368e-15,13.1586667 3.55271368e-15,29.3346667 C3.55271368e-15,45.5106667 13.16,58.6706667 29.336,58.6706667 C45.512,58.6706667 58.6706667,45.5106667 58.6706667,29.3346667 C58.6706667,13.1586667 45.512,0 29.336,0 L29.336,0 Z M36.112,28.392 C36.6333333,28.9133333 36.6333333,29.756 36.112,30.2773333 L32.188,34.2053333 L30.3026667,32.32 L31.9533333,30.668 L22.3346667,30.668 L22.3346667,28.0013333 L31.9533333,28.0013333 L30.3026667,26.3493333 L32.188,24.464 L36.112,28.392 Z M40.0026667,44.336 L44.336,44.336 L44.336,40.0026667 L40.0026667,40.0026667 L40.0026667,44.336 Z M45.6693333,37.336 L38.6693333,37.336 C37.932,37.336 37.336,37.932 37.336,38.6693333 L37.336,45.6693333 C37.336,46.4066667 37.932,47.0026667 38.6693333,47.0026667 L45.6693333,47.0026667 C46.4066667,47.0026667 47.0026667,46.4066667 47.0026667,45.6693333 L47.0026667,38.6693333 C47.0026667,37.932 46.4066667,37.336 45.6693333,37.336 L45.6693333,37.336 Z M20.8893333,22.3213333 L30.616,17.188 L28.5266667,16.6213333 L29.224,14.048 L34.5826667,15.5 C35.2933333,15.6933333 35.712,16.424 35.52,17.136 L34.068,22.4973333 L31.4946667,21.8 L32.1453333,19.396 L22.1346667,24.6813333 L20.8893333,22.3213333 Z M40.0026667,18.668 L44.336,18.668 L44.336,14.3346667 L40.0026667,14.3346667 L40.0026667,18.668 Z M45.6693333,11.668 L38.6693333,11.668 C37.932,11.668 37.336,12.264 37.336,13.0013333 L37.336,20.0013333 C37.336,20.7386667 37.932,21.3346667 38.6693333,21.3346667 L45.6693333,21.3346667 C46.4066667,21.3346667 47.0026667,20.7386667 47.0026667,20.0013333 L47.0026667,13.0013333 C47.0026667,12.264 46.4066667,11.668 45.6693333,11.668 L45.6693333,11.668 Z M8.46133333,33.796 L17.3813333,33.796 L17.3813333,24.876 L8.46133333,24.876 L8.46133333,33.796 Z M18.7146667,22.208 L7.128,22.208 C6.39066667,22.208 5.79466667,22.8053333 5.79466667,23.5413333 L5.79466667,35.1293333 C5.79466667,35.8653333 6.39066667,36.4626667 7.128,36.4626667 L18.7146667,36.4626667 C19.452,36.4626667 20.048,35.8653333 20.048,35.1293333 L20.048,23.5413333 C20.048,22.8053333 19.452,22.208 18.7146667,22.208 L18.7146667,22.208 Z M35.52,41.5333333 C35.712,42.2453333 35.2933333,42.976 34.5826667,43.1693333 L29.224,44.6226667 L28.5266667,42.0493333 L30.6173333,41.4826667 L20.8893333,36.3493333 L22.1346667,33.9893333 L32.1453333,39.2733333 L31.4946667,36.8693333 L34.068,36.172 L35.52,41.5333333 Z M40.0026667,31.5013333 L44.336,31.5013333 L44.336,27.168 L40.0026667,27.168 L40.0026667,31.5013333 Z M45.6693333,24.5013333 L38.6693333,24.5013333 C37.932,24.5013333 37.336,25.0973333 37.336,25.8346667 L37.336,32.8346667 C37.336,33.572 37.932,34.168 38.6693333,34.168 L45.6693333,34.168 C46.4066667,34.168 47.0026667,33.572 47.0026667,32.8346667 L47.0026667,25.8346667 C47.0026667,25.0973333 46.4066667,24.5013333 45.6693333,24.5013333 L45.6693333,24.5013333 Z" id="AWS-Elastic-Load-Balancing_Network-Load-Balancer_Resource-Icon_light-bg"></path>
        </g>
    </g>
</svg>