<?xml version="1.0" encoding="UTF-8"?>
<svg width="103px" height="104px" viewBox="0 0 103 104" version="1.1" xmlns="http://www.w3.org/2000/svg" xmlns:xlink="http://www.w3.org/1999/xlink">
    <title>svg</title>
    <g id="Symbols" stroke="none" stroke-width="1" fill="none" fill-rule="evenodd" stroke-linejoin="round">
        <g id="Form-/-Card-with-Icon" transform="translate(-94.000000, -38.000000)" stroke="#232F3D" stroke-width="2.153846">
            <g id="svg" transform="translate(95.000000, 40.000000)">
                <path d="M82.7750048,16.5990155 L74.915276,16.5907542 L74.915276,46.3674625 L82.7750048,46.3757253 L82.7750048,16.5990155 Z M92.0757369,5.14801136 L82.8096943,5.13975004 L82.8096943,46.3770464 L92.0757369,46.3853077 L92.0757369,5.14801136 Z M100,26.4926951 L92.0777682,26.4844338 L92.0777682,46.3851426 L100,46.3917526 L100,26.4926951 Z M23.4338947,44.7551159 L29.6841757,44.7551159 L29.6841757,38.1457798 L23.4338947,38.1457798 L23.4338947,44.7551159 Z M23.2323232,26.42908 L29.4826043,26.42908 L29.4826043,19.8197454 L23.2323232,19.8197454 L23.2323232,26.42908 Z M23.4338947,6.60933456 L29.6841757,6.60933456 L29.6841757,0 L23.4338947,0 L23.4338947,6.60933456 Z" id="Shape"></path>
                <path d="M53.5923539,23.8945041 C53.5923539,29.0584804 42.4596024,33.2454871 27.1584989,33.2454871 C11.8573969,33.2454871 0.724644002,29.0584804 0.724644002,23.8945041 C0.724644002,18.7305279 11.8573969,13.4020619 27.1584989,13.4020619 C42.4596024,13.4020619 53.5923539,18.7305279 53.5923539,23.8945041 L53.5923539,23.8945041 Z M0.724019897,40.9941121 C0.724019897,45.837416 11.8567728,51.5779383 27.1578763,51.5779383 L31.7020467,51.5779383 M33.2123522,66.7928924 C16.7728679,67.1783635 0.72480039,63.1143075 0.72480039,58.26934 M0.724019897,23.0045981 L0.724019897,74.5845495 M53.5923539,23.5409335 L53.5923539,41.4055011 M33.3790549,83.3204423 C14.862414,83.7989563 0.724644002,79.2347857 0.724644002,74.3898198 M42.6975704,74.8683353 L59.6844137,74.8683353 M33.2808112,66.6598064 C33.2808112,77.6723018 41.6596154,86.5979381 51.9939409,86.5979381 C62.3282679,86.5979381 70.7070707,77.6723018 70.7070707,66.6598049 C70.7070707,54.7567393 62.3282665,46.7216716 51.9939409,46.7216716 C41.659614,46.7216716 33.2808112,55.6489716 33.2808112,66.6598049 L33.2808112,66.6598064 Z" id="Shape"></path>
                <path d="M68.3505781,76.2613543 L82.4926558,91.3215256 C84.3254239,93.272755 84.2799959,96.4694504 82.393967,98.4688384 C80.506373,100.471547 77.4846563,100.514724 75.6456219,98.5684761 L61.686821,83.7740038 M39.3939394,68.2711111 L50.1477453,68.2711111 M53.4951318,68.2711111 L57.9705332,68.2711111 M47.2507179,61.5930893 L62.4485951,61.5930893 M71.033,65.4105245 C71.8287646,65.4105245 72.6119995,65.3540648 73.3795686,65.2411424" id="Shape"></path>
                <path d="M76.7676768,63.9175258 C81.6744381,61.8856789 85.4426243,57.7114186 86.8686869,52.5773196" id="Path" stroke-dasharray="2.997077"></path>
                <path d="M87.3171717,49.4845361 C87.3911414,48.8110248 87.430303,48.1223618 87.430303,47.4226804" id="Path"></path>
            </g>
        </g>
    </g>
</svg>