<?xml version="1.0" encoding="UTF-8"?>
<svg width="104px" height="102px" viewBox="0 0 104 102" version="1.1" xmlns="http://www.w3.org/2000/svg" xmlns:xlink="http://www.w3.org/1999/xlink">
    <title>collect</title>
    <g id="Home" stroke="none" stroke-width="1" fill="none" fill-rule="evenodd" stroke-linejoin="round">
        <g transform="translate(-194.000000, -304.000000)" id="Main" stroke="#232F3D" stroke-width="2.484472">
            <g transform="translate(86.000000, 59.000000)">
                <g id="How-it-works" transform="translate(0.000000, 153.000000)">
                    <g id="Form-/-Card-with-Icon" transform="translate(0.000000, 60.000000)">
                        <g id="collect" transform="translate(110.000000, 34.000000)">
                            <g id="Clipped" transform="translate(49.176585, 21.446935)">
                                <line x1="0.882229367" y1="1.38779613e-15" x2="0.882229367" y2="78.5530652" id="Path"></line>
                            </g>
                            <path d="M22.5089319,48.0343504 L34.468509,48.0343504 L34.468509,99.9995833 M77.4901947,48.0343504 L65.5328037,48.0343504 L65.5328037,99.9995833 M61.2544659,10.7230507 C61.2544659,16.6460414 56.2148277,21.4461014 50.001094,21.4461014 C43.785174,21.4461014 38.7455341,16.6460414 38.7455341,10.7230507 C38.7455341,4.80006 43.785174,-5.92192962e-16 50.001094,-5.92192962e-16 C56.2148277,-5.92192962e-16 61.2544659,4.80006 61.2544659,10.7230507 Z M22.5089319,48.0343504 C22.5089319,53.9573411 17.4714781,58.7574011 11.2555599,58.7574011 C5.03963998,58.7574011 0,53.9573411 0,48.0343504 C0,42.1113597 5.03963998,37.3112997 11.2555599,37.3112997 C17.4714781,37.3112997 22.5089319,42.1113597 22.5089319,48.0343504 L22.5089319,48.0343504 Z M100,48.0343504 C100,53.9573411 94.9603618,58.7574011 88.746628,58.7574011 C82.5285219,58.7574011 77.4910699,53.9573411 77.4910699,48.0343504 C77.4910699,42.1113597 82.5285219,37.3112997 88.746628,37.3112997 C94.9603618,37.3112997 100,42.1113597 100,48.0343504 L100,48.0343504 Z" id="Shape"></path>
                            <path d="M12.8837671,37.4302595 C16.6050106,25.623862 26.3738217,16.2883286 38.7444419,12.7028671 M61.0522254,12.6445331 C73.5190457,16.186244 83.373126,25.5592778 87.1162329,37.4260928 M87.1162329,58.638858 C82.3236577,73.8452981 67.4977173,84.9537703 50,84.9537703 C32.495726,84.9537703 17.6654115,73.8348813 12.8793948,58.6201078" id="Shape"></path>
                        </g>
                    </g>
                </g>
            </g>
        </g>
    </g>
</svg>